<svg xmlns="http://www.w3.org/2000/svg" viewBox="0 0 64 64">
  <defs>
    <linearGradient id="g" x1="0%" y1="30%" x2="100%" y2="70%">
      <stop offset="0%" stop-color="#38bdf8"/>
      <stop offset="50%" stop-color="#3b82f6"/>
      <stop offset="100%" stop-color="#6366f1"/>
    </linearGradient>
    <filter id="blur" x="-20%" y="-20%" width="140%" height="140%">
      <feGaussianBlur stdDeviation="1.5"/>
    </filter>
    <clipPath id="clip">
      <path d="M32 4 C48 4, 60 16, 58 32 C56 48, 44 62, 28 60 C12 58, 4 46, 6 30 C8 14, 16 4, 32 4Z"/>
    </clipPath>
  </defs>

  <!-- Glow layer -->
  <path d="M32 4 C48 4, 60 16, 58 32 C56 48, 44 62, 28 60 C12 58, 4 46, 6 30 C8 14, 16 4, 32 4Z"
        fill="url(#g)" opacity="0.3" filter="url(#blur)" transform="scale(1.08) translate(-2,-2)"/>

  <!-- Main blob -->
  <path d="M32 4 C48 4, 60 16, 58 32 C56 48, 44 62, 28 60 C12 58, 4 46, 6 30 C8 14, 16 4, 32 4Z"
        fill="url(#g)"/>

  <!-- GTTC text -->
  <text x="32" y="37" font-family="'Figtree',Arial,sans-serif" font-size="16" font-weight="800"
        fill="white" text-anchor="middle" letter-spacing="-0.5">GTTC</text>
</svg>
